<svg xmlns="http://www.w3.org/2000/svg"
shape-rendering="geometricPrecision"
width="4000" height="4000" viewBox="0 0 1024 1024"><rect width="100%" height="100%" fill="#FEFFFF" />
  <metadata>null</metadata>

<path d="
M 120.966 485.616
C 121.272 482.587 121.189 479.522 121.453 476.487
C 122.021 469.955 123.084 463.401 124.369 456.971
C 127.131 443.154 132.142 429.676 138.384 417.063
C 148.668 396.284 164.315 376.782 182.595 362.512
C 189.144 357.4 195.619 352.198 202.927 348.167
C 227.746 334.476 255.828 327.543 284.171 328.872
C 308.393 330.008 332.601 337.352 351.797 352.579
C 357.722 357.28 363.859 362.002 368.059 368.357
C 368.343 367.374 368.052 366.021 368.075 364.988
C 368.135 362.326 368.189 359.668 368.187 357.005
C 368.181 349.249 368.45 341.468 368.227 333.717
C 385.807 333.612 403.412 333.419 421.007 333.439
C 426.897 333.446 432.79 333.384 438.68 333.441
C 441.738 333.47 444.85 333.82 447.902 333.649
C 448.9 335.739 448.204 339.699 448.141 341.999
C 447.971 348.274 447.937 354.593 447.94 360.864
C 447.953 383.915 447.874 406.965 447.901 430.015
C 447.919 445.178 447.984 460.344 447.817 475.505
C 447.673 488.599 447.449 501.439 445.563 514.422
C 438.162 565.371 408.227 611.052 365.137 638.942
C 351.052 648.058 334.673 655.131 318.378 659.107
C 297.225 664.27 275.544 665.191 254.112 661.053
C 232.202 656.822 211.79 646.819 193.757 633.942
C 179.392 623.685 166.37 611.531 155.708 597.408
C 132.073 566.102 118.533 524.958 120.966 485.616 Z
M 205.461 484.623
C 204.082 501.74 207.576 519.371 215.918 534.428
C 230.767 561.228 259.69 579.208 290.504 578.324
C 298.612 578.091 306.42 576.279 313.899 573.174
C 322.347 569.667 329.802 565.34 336.704 559.31
C 344.652 552.366 351.491 543.969 356.41 534.595
C 362.303 523.362 366.052 511.169 367.1 498.52
C 368.109 486.346 366.313 474.5 362.724 462.884
C 359.755 453.277 354.74 444.436 348.317 436.724
C 341.832 428.937 334.47 422.49 325.512 417.68
C 316.366 412.768 306.812 409.31 296.475 408.052
C 275.725 405.528 254.718 411.622 238.012 423.999
C 229.065 430.628 221.558 439.981 215.939 449.507
C 209.682 460.115 206.442 472.434 205.461 484.623 Z"
opacity="1" fill="rgb(17,17,17)" fill-rule="evenodd" />
<path d="
M 126.892 747.041
C 129.225 745.808 130.51 742.275 131.939 740.148
C 135.451 734.921 139.02 729.72 142.688 724.601
C 151.373 712.479 160.299 700.516 169.145 688.514
C 173.732 682.291 178.992 676.351 183.05 669.767
C 183.726 670.083 184.357 671.296 184.84 671.909
C 186.01 673.394 187.192 674.856 188.319 676.374
C 192.062 681.419 196.352 685.929 200.574 690.568
C 211.31 702.364 225.095 712.758 239.647 719.349
C 250.864 724.429 262.716 728.248 274.978 729.653
C 284.952 730.795 295.145 730.455 305.048 728.827
C 313.553 727.429 322.1 724.95 330.046 721.605
C 345.054 715.287 359.052 705.984 370.754 694.653
C 384.468 681.374 396.003 665.39 406.822 649.722
C 410.924 643.781 415.139 637.934 419.29 632.028
C 422.068 628.076 424.469 623.76 427.419 619.946
C 435.298 630.225 441.17 643.033 444.899 655.391
C 448.284 666.613 450.014 678.451 449.981 690.177
C 449.915 713.462 443.78 735.747 432.79 756.251
C 428.569 764.128 422.592 771.395 416.771 778.117
C 397.307 800.592 370.732 815.668 342.05 822.904
C 328.175 826.405 314.059 828.302 299.77 828.672
C 262.613 829.634 225.804 818.052 193.716 799.719
C 169.08 785.643 146.864 767.155 126.719 747.332
C 126.777 747.235 126.834 747.138 126.892 747.041 Z"
opacity="1" fill="rgb(17,17,17)" fill-rule="evenodd" />
<path d="
M 465.992 244.112
C 466.508 233.927 469.199 223.339 474.414 214.506
C 488.543 190.573 518.223 179.007 544.887 186.668
C 554.974 189.567 564.023 195.363 571.478 202.685
C 577.554 208.653 581.749 216.078 584.845 223.951
C 588.407 233.009 589.795 242.482 589.283 252.191
C 588.871 260.022 586.468 267.187 583.385 274.325
C 579.949 282.279 574.448 289.566 567.788 295.06
C 557.787 303.309 546.721 308.997 533.603 310.207
C 511.299 312.265 488.899 300.598 476.421 282.238
C 468.926 271.21 465.319 257.384 465.992 244.112 Z"
opacity="1" fill="rgb(17,17,17)" fill-rule="evenodd" />
<path d="
M 478.476 440.117
C 479.456 431.033 479.384 422.005 481.63 413.052
C 486.211 394.792 495.054 377.346 508.524 364.011
C 517.893 354.736 529.027 347.824 541.156 342.799
C 549.859 339.194 559.247 336.929 568.554 335.549
C 570.709 335.229 572.855 334.777 575.027 334.59
C 575.702 334.532 576.751 334.266 577.36 334.563
C 578.035 340.302 577.721 346.227 577.744 352.004
C 577.784 362.337 577.733 372.671 577.759 383.004
C 577.837 415.004 577.769 447.002 577.761 479.002
C 577.751 519.836 577.744 560.67 577.694 601.503
C 577.678 615.003 577.754 628.503 577.718 642.003
C 577.699 648.974 578.042 656.065 577.51 663.009
C 577.113 663.323 576.343 663.144 575.873 663.128
C 574.26 663.072 572.644 663.09 571.03 663.073
C 564.949 663.01 558.872 662.963 552.791 662.967
C 536.035 662.978 519.271 662.934 502.509 662.943
C 497.315 662.946 492.123 663.001 486.93 663.032
C 484.212 663.048 481.209 663.413 478.538 662.907
C 478.03 652.001 478.481 640.934 478.439 629.995
C 478.339 604.163 478.508 578.328 478.42 552.496
C 478.338 528.5 478.317 504.503 478.294 480.506
C 478.281 467.092 477.716 453.512 478.476 440.117 Z"
opacity="1" fill="rgb(17,17,17)" fill-rule="evenodd" />
<path d="
M 596.47 481.114
C 597.78 469.777 598.771 458.669 601.636 447.551
C 608.918 419.289 624.124 392.963 644.623 372.203
C 673.037 343.428 712.806 327.428 753.261 328.761
C 768.107 329.25 783.182 331.67 796.898 337.595
C 809.282 342.945 820.791 350.194 830.678 359.392
C 833.191 361.731 835.131 364.542 837.482 366.957
C 837.66 366.14 837.26 365.235 837.198 364.416
C 837.041 362.329 837.294 360.107 837.31 358.005
C 837.372 349.946 837.031 341.827 837.427 333.78
C 839.444 333.09 842.377 333.545 844.506 333.537
C 849.667 333.52 854.828 333.514 859.99 333.506
C 872.83 333.484 885.671 333.441 898.511 333.435
C 904.221 333.433 910.154 333.984 915.835 333.585
C 916.543 335.559 915.817 338.869 915.81 340.998
C 915.792 346.833 915.828 352.667 915.781 358.502
C 915.629 377.33 915.678 396.174 915.747 415.003
C 915.818 434.168 915.757 453.335 915.645 472.499
C 915.552 488.4 915.752 504.188 913.018 519.912
C 906.213 559.051 886.584 594.793 857.323 621.573
C 848.605 629.551 839.044 637.244 828.681 643.022
C 811.488 652.609 793.328 659.427 773.802 662.269
C 710.114 671.538 646.996 632.245 616.878 577.292
C 600.808 547.97 594.415 514.387 596.47 481.114 Z
M 675.945 482.12
C 674.812 494.223 675.933 507.472 679.904 519.006
C 690.621 550.135 718.601 575.097 751.877 577.974
C 759.771 578.656 768.23 578.199 775.877 576.011
C 784.258 573.613 792.433 569.951 799.628 565.016
C 810.378 557.642 818.955 547.162 825.509 535.998
C 831.438 525.899 835.157 514.232 836.171 502.561
C 837.267 489.939 836.418 476.892 832.497 464.78
C 825.287 442.51 808.719 423.066 787.004 413.846
C 779.569 410.689 771.578 408.531 763.512 407.964
C 751.02 407.086 738.613 408.664 726.912 413.228
C 698.587 424.277 678.751 452.121 675.945 482.12 Z"
opacity="1" fill="rgb(17,17,17)" fill-rule="evenodd" />
<path d="
M 598.763 745.972
C 605.393 734.88 613.156 724.431 620.749 713.985
C 626.198 706.489 631.458 698.82 637.054 691.437
C 640.789 686.509 644.522 681.582 648.208 676.619
C 650.289 673.819 652.706 671.178 654.523 668.193
C 657.911 671.755 660.235 676.425 663.502 680.147
C 673.665 691.723 684.73 702.624 697.816 710.898
C 708.711 717.787 720.511 723.682 733.025 726.943
C 742.58 729.434 752.145 730.339 762.004 730.232
C 769.979 730.145 777.803 728.993 785.558 727.167
C 792.972 725.422 800.137 722.455 806.934 719.058
C 816.731 714.161 825.81 708.52 834.115 701.344
C 857.686 680.977 874.338 653.161 892.562 628.257
C 894.306 630.108 895.723 632.776 897.049 634.955
C 899.647 639.222 902.069 643.503 904.412 647.921
C 909.244 657.03 912.053 666.194 914.023 676.295
C 922.74 721 903.586 767.505 867.902 795.178
C 862.954 799.015 858.064 802.885 852.613 806.007
C 808.9 831.042 752.843 833.804 705.688 817.088
C 682.855 808.994 661.926 797.545 642.376 783.299
C 631.878 775.65 622.173 767.222 612.199 758.939
C 608.979 756.264 605.887 753.522 602.782 750.717
C 601.357 749.429 599.57 748.167 598.556 746.518
C 598.625 746.336 598.694 746.154 598.763 745.972 Z"
opacity="1" fill="rgb(17,17,17)" fill-rule="evenodd" />

</svg>